<?xml version="1.0" standalone="no"?>
<!DOCTYPE svg PUBLIC "-//W3C//DTD SVG 20010904//EN"
 "http://www.w3.org/TR/2001/REC-SVG-20010904/DTD/svg10.dtd">
<svg version="1.0" xmlns="http://www.w3.org/2000/svg"
 width="382.000000pt" height="382.000000pt" viewBox="0 0 382.000000 382.000000"
 preserveAspectRatio="xMidYMid meet">
<metadata>
Created by potrace 1.14, written by Peter Selinger 2001-2017
</metadata>
<g transform="translate(0.000000,382.000000) scale(0.100000,-0.100000)"
fill="#000000" stroke="none">
<path d="M1899 3458 c-1 -104 -3 -196 -3 -205 -1 -15 12 -19 79 -25 160 -14
271 -29 316 -44 71 -23 175 -82 193 -109 9 -14 22 -25 28 -25 17 0 98 -81 98
-97 0 -7 5 -13 10 -13 17 0 11 15 -15 40 l-24 23 27 28 c14 16 39 34 54 40 32
13 35 24 13 45 -8 8 -20 23 -28 34 -16 23 -185 108 -287 145 -80 28 -204 59
-282 70 -31 4 -48 11 -48 20 0 7 -8 16 -19 20 -13 4 -27 34 -49 103 -55 171
-61 166 -63 -50z m716 -317 c30 -13 50 -40 39 -51 -6 -6 -28 6 -57 31 -47 41
-66 76 -24 45 12 -9 31 -20 42 -25z"/>
<path d="M2517 3532 c-21 -23 -22 -52 -2 -52 8 0 15 -7 15 -15 0 -22 36 -19
60 5 23 23 24 30 8 53 -21 26 -61 31 -81 9z"/>
<path d="M876 3524 c-19 -18 -20 -47 -5 -77 23 -42 45 -47 77 -17 28 27 28 61
-1 88 -28 26 -50 28 -71 6z m62 -33 c3 -8 -1 -12 -9 -9 -7 2 -15 10 -17 17 -3
8 1 12 9 9 7 -2 15 -10 17 -17z"/>
<path d="M2469 3419 c-13 -25 2 -69 24 -69 20 0 47 33 47 57 0 37 -53 45 -71
12z"/>
<path d="M1316 3411 c-12 -13 -16 -32 -14 -62 4 -56 24 -60 98 -22 60 31 66
40 47 67 -13 18 -15 18 -39 2 -16 -10 -29 -13 -32 -7 -4 5 -2 12 4 16 6 4 8
11 5 16 -10 16 -51 10 -69 -10z"/>
<path d="M1748 3403 c-29 -4 -40 -33 -13 -33 8 0 15 -6 15 -13 0 -9 -28 -17
-92 -24 -51 -7 -149 -29 -218 -49 -69 -21 -148 -38 -175 -39 -35 0 -60 -7 -82
-23 -17 -12 -42 -26 -55 -31 -35 -13 -138 -80 -138 -89 0 -5 -14 -23 -31 -40
-20 -21 -26 -32 -17 -32 8 0 23 9 33 20 10 11 21 20 25 20 13 0 70 -54 70 -66
0 -23 23 -16 58 16 40 36 65 50 89 50 15 0 13 -4 -9 -25 -15 -14 -30 -25 -35
-25 -4 0 -19 -12 -34 -26 -23 -22 -26 -30 -16 -45 9 -14 8 -22 -6 -37 -9 -10
-17 -23 -17 -28 0 -5 14 8 31 29 17 20 37 37 45 37 8 0 14 3 14 8 0 18 94 112
142 144 87 56 242 107 324 108 30 0 74 34 74 57 0 6 7 16 15 23 15 12 55 94
55 111 0 9 -4 9 -52 2z m-452 -288 c-23 -17 -36 -19 -36 -6 0 11 18 19 40 20
11 0 10 -3 -4 -14z"/>
<path d="M2315 3387 c-26 -20 -14 -31 55 -52 64 -19 87 -14 74 19 -15 38 -93
58 -129 33z"/>
<path d="M2715 3110 c-8 -13 15 -13 35 0 12 8 11 10 -7 10 -12 0 -25 -4 -28
-10z"/>
<path d="M836 3075 c-19 -29 -14 -45 13 -45 27 0 47 28 35 48 -16 25 -30 25
-48 -3z"/>
<path d="M533 2913 c-34 -7 -45 -26 -30 -56 6 -15 20 -27 29 -27 29 0 47 -11
41 -26 -4 -10 3 -14 22 -14 57 0 81 35 53 80 -11 17 -14 18 -29 4 -14 -13 -18
-13 -30 2 -11 13 -11 18 -1 21 6 3 12 9 12 14 0 9 -26 10 -67 2z"/>
<path d="M797 2913 c-4 -3 -7 -15 -7 -25 0 -10 -7 -18 -15 -18 -8 0 -15 -4
-15 -9 0 -5 -20 -38 -45 -74 -24 -35 -47 -78 -51 -93 -4 -16 -16 -42 -27 -57
-18 -26 -21 -27 -36 -13 -23 21 -34 20 -54 -2 -20 -22 -22 -53 -5 -70 9 -9 9
-20 -1 -48 -10 -28 -10 -42 -1 -64 10 -24 9 -38 -5 -81 l-17 -51 26 -27 c14
-14 43 -43 63 -63 34 -34 37 -40 25 -59 -11 -16 -11 -24 -1 -36 11 -12 6 -21
-29 -53 -23 -22 -42 -46 -42 -54 0 -7 -11 -17 -25 -20 -39 -10 -51 -46 -33
-98 9 -24 21 -70 28 -103 6 -33 24 -100 40 -150 15 -49 33 -112 39 -140 7 -32
21 -58 37 -71 16 -13 23 -26 19 -36 -4 -9 1 -28 10 -41 15 -24 15 -33 -9 -146
-38 -179 -35 -256 12 -287 l26 -17 98 102 98 103 50 -37 c28 -20 50 -40 50
-45 0 -4 -18 -10 -39 -14 -101 -16 -92 -140 12 -180 40 -15 50 -16 74 -4 38
18 52 70 29 109 -14 24 -15 29 -3 29 8 0 21 -7 28 -17 19 -22 342 -177 416
-198 32 -10 78 -19 103 -20 81 -5 119 -13 132 -26 9 -10 13 -47 12 -119 0 -64
5 -117 12 -136 15 -36 11 -44 -22 -44 -20 0 -22 4 -17 34 5 31 1 39 -36 74
l-42 39 -238 2 c-159 1 -241 -2 -246 -8 -8 -14 -82 -14 -90 -1 -4 6 -170 10
-467 10 l-460 0 7 -47 c4 -26 15 -58 25 -70 18 -23 17 -25 -4 -86 -28 -77 -42
-193 -25 -213 8 -9 33 -14 75 -14 60 0 64 2 64 23 0 42 17 52 24 13 l7 -36
127 0 c85 0 132 4 140 12 9 9 16 7 33 -8 24 -21 39 -22 304 -6 90 5 164 6 170
1 5 -5 37 -9 71 -9 46 0 68 5 87 20 32 25 42 25 67 0 25 -25 96 -27 130 -3 17
12 25 13 28 5 5 -15 138 -17 147 -2 9 15 25 12 25 -6 0 -8 15 -21 33 -29 48
-20 210 -28 287 -15 36 6 80 14 98 17 19 3 39 15 49 29 13 20 18 22 37 12 21
-12 464 -14 1044 -7 263 4 264 4 283 28 22 27 25 78 5 125 -27 64 -28 107 -6
180 29 92 23 110 -42 133 -53 18 -63 18 -373 13 -22 0 -94 0 -159 1 -134 1
-154 -8 -159 -69 -1 -18 -5 -32 -8 -32 -4 0 -37 27 -73 60 -67 61 -96 72 -125
46 -12 -10 -40 -12 -121 -7 -103 6 -105 6 -102 30 1 13 13 45 26 71 21 41 22
50 11 76 -20 46 -45 62 -105 67 l-55 3 67 2 c59 2 67 0 73 -18 8 -26 53 -27
103 -1 20 10 62 26 92 34 31 9 67 28 80 42 13 14 26 25 29 25 3 0 26 -18 50
-40 30 -28 53 -40 73 -40 43 0 101 36 139 86 18 24 36 44 41 44 4 0 16 -9 26
-21 19 -23 98 -79 111 -79 14 0 34 30 48 69 15 43 17 137 3 146 -5 3 -10 26
-10 50 0 52 -14 130 -37 202 -9 29 -14 56 -10 60 4 4 21 -1 38 -11 23 -14 41
-17 71 -12 24 4 46 2 54 -5 18 -15 52 -2 60 23 4 15 0 26 -16 38 -16 12 -19
19 -10 22 19 6 3 28 -21 28 -12 0 -23 10 -29 25 -5 14 -21 30 -35 37 -14 6
-23 16 -21 22 5 11 30 92 71 226 19 63 22 90 18 168 -4 75 -9 95 -22 99 -46
14 -61 27 -61 53 0 22 6 28 38 36 34 8 37 12 36 44 -3 99 -34 223 -107 414
-14 37 -13 40 7 63 31 36 37 70 19 114 -23 59 -68 75 -127 44 -15 -8 -33 -15
-40 -15 -6 0 -21 -8 -34 -18 l-22 -17 33 -66 c58 -113 59 -161 2 -71 -38 59
-64 104 -68 115 -1 5 -28 -4 -59 -20 l-57 -29 16 -32 c8 -18 19 -32 23 -32 4
0 13 -13 20 -30 7 -16 16 -30 21 -30 20 0 125 -173 109 -178 -15 -5 -12 -35 5
-58 24 -32 12 -274 -15 -309 -4 -5 -11 -25 -15 -43 -7 -32 -19 -62 -56 -135
-10 -22 -19 -43 -19 -49 0 -16 -53 -123 -63 -127 -5 -2 -24 -16 -42 -32 -18
-16 -37 -29 -43 -29 -5 0 -50 -46 -98 -102 -133 -153 -196 -212 -269 -249 -36
-18 -65 -36 -65 -40 0 -14 -96 -52 -195 -77 -125 -32 -296 -35 -420 -8 -101
22 -273 104 -309 147 -15 18 -44 44 -64 59 -40 30 -42 32 -154 147 -42 43 -90
86 -105 93 -15 8 -41 25 -56 37 -16 13 -34 23 -40 23 -19 0 -72 70 -100 130
-36 79 -77 186 -77 202 0 8 -4 18 -9 23 -11 13 -31 140 -31 196 0 32 3 40 11
32 15 -15 69 11 69 33 0 27 -20 54 -40 54 -33 0 -31 17 9 61 37 42 39 43 58
27 25 -23 79 -24 87 -2 3 9 6 31 6 49 0 19 6 35 14 38 8 3 17 20 21 37 8 37
-18 74 -47 67 -13 -4 -18 1 -18 14 0 10 -9 23 -19 28 -31 17 -131 125 -131
142 0 9 11 33 25 53 14 20 25 41 25 46 0 11 -14 13 -23 3z m53 -265 c0 -6 -5
-26 -12 -45 -11 -29 -10 -35 7 -46 12 -9 16 -20 12 -31 -7 -18 -29 -18 -28 -1
0 6 -7 17 -14 25 -12 13 -12 22 3 63 16 44 32 62 32 35z m2170 -254 c0 -8 -4
-12 -10 -9 -5 3 -10 13 -10 21 0 8 5 12 10 9 6 -3 10 -13 10 -21z m57 -725
c-3 -22 -13 -49 -22 -59 -16 -18 -16 -20 9 -45 29 -29 31 -42 14 -80 -14 -32
-21 -32 -36 3 -6 15 -23 47 -37 72 -31 56 -32 74 -4 65 14 -5 19 -3 18 7 -7
34 22 71 60 77 2 1 1 -17 -2 -40z m-2152 -19 c17 -34 18 -40 6 -40 -7 0 -31
51 -31 66 0 12 12 0 25 -26z m-104 -63 c-8 -8 -11 -7 -11 4 0 20 13 34 18 19
3 -7 -1 -17 -7 -23z m77 -27 c12 -16 22 -42 22 -57 1 -15 7 -46 15 -68 l14
-40 -56 -73 c-50 -66 -123 -177 -123 -189 0 -2 -11 -28 -24 -56 -13 -29 -29
-69 -35 -89 -7 -21 -16 -38 -20 -38 -4 0 -13 17 -20 38 -10 29 -10 58 -3 121
6 46 14 86 20 90 5 3 19 39 31 79 12 41 33 97 45 125 13 29 29 68 35 87 16 49
48 100 64 100 7 0 23 -13 35 -30z m2069 -52 c45 -67 88 -193 99 -289 9 -80 -6
-82 -63 -7 -26 34 -72 89 -102 121 -49 55 -53 62 -47 96 3 20 6 48 6 62 0 29
34 79 53 79 7 0 31 -28 54 -62z m-1928 -235 c0 -11 -59 -57 -59 -47 0 4 10 18
22 31 21 23 39 30 37 16z m1709 -20 c6 -19 -25 -16 -32 3 -4 11 -1 14 11 12 9
-2 18 -9 21 -15z m-1652 -21 c-7 -12 29 -51 119 -128 44 -37 94 -81 110 -96
17 -15 44 -35 62 -43 57 -27 58 -58 1 -34 -76 30 -199 121 -284 207 -28 29
-47 40 -58 36 -9 -3 -16 -10 -16 -15 0 -5 -7 -9 -15 -9 -8 0 -15 -4 -15 -10 0
-5 -7 -10 -15 -10 -8 0 -15 3 -15 8 1 10 40 53 74 80 28 21 63 31 52 14z
m1738 -38 c3 -8 -1 -14 -8 -14 -16 0 -38 24 -30 33 9 9 32 -3 38 -19z m-1865
13 c-2 -1 -13 -9 -24 -17 -19 -14 -19 -14 -6 3 7 9 18 17 24 17 6 0 8 -1 6 -3z
m326 -78 c11 -13 -6 -1 -37 26 -32 27 -58 51 -58 53 0 7 74 -55 95 -79z m1610
-10 c11 -17 -1 -21 -15 -4 -8 9 -8 15 -2 15 6 0 14 -5 17 -11z m-475 -29 c0
-5 -5 -10 -11 -10 -5 0 -7 5 -4 10 3 6 8 10 11 10 2 0 4 -4 4 -10z m-1075 -10
c3 -6 -1 -7 -9 -4 -18 7 -21 14 -7 14 6 0 13 -4 16 -10z m1485 -19 c0 -36 -11
-53 -26 -40 -17 14 -18 46 -1 52 22 9 27 7 27 -12z m-1355 -46 c139 -65 344
-103 473 -85 145 20 182 29 283 69 56 23 103 41 106 41 3 0 -8 -13 -24 -30
-17 -19 -38 -30 -54 -30 -15 0 -29 -7 -33 -15 -3 -8 -18 -15 -32 -15 -15 0
-35 -6 -43 -13 -62 -53 -455 -56 -566 -4 -27 13 -70 32 -95 42 -56 24 -90 45
-90 56 0 15 20 10 75 -16z m820 -195 c-3 -5 -34 -10 -68 -11 -34 0 -93 -4
-132 -8 -84 -10 -110 3 -34 17 74 13 242 15 234 2z m-330 -45 c-42 -20 -61
-20 -45 0 7 8 27 15 44 14 l31 -1 -30 -13z m169 -110 c20 -20 62 -19 70 1 4 9
9 14 13 11 11 -11 -19 -37 -43 -37 -13 0 -33 -4 -46 -9 -13 -6 -40 -12 -60
-16 -29 -4 -38 -11 -38 -25 0 -11 4 -20 10 -20 18 0 120 -107 120 -126 -1 -19
-1 -19 -15 0 -8 10 -29 20 -47 22 -18 1 -87 12 -153 23 -104 17 -121 18 -131
5 -10 -13 -12 -13 -18 1 -3 9 0 15 9 15 8 0 15 7 15 15 0 8 -4 15 -9 15 -4 0
-7 11 -6 25 2 14 0 25 -5 25 -11 0 -20 53 -11 68 6 10 12 5 21 -17 7 -17 15
-31 19 -31 81 2 187 23 227 44 58 30 59 30 78 11z m468 -81 c7 -8 30 -32 51
-52 36 -35 87 -104 87 -118 0 -3 -10 0 -23 9 -12 8 -53 17 -90 19 -37 3 -70 8
-73 10 -7 8 18 148 27 148 5 0 14 -7 21 -16z m-302 -4 c0 -5 -4 -10 -10 -10
-14 0 -13 -76 1 -102 10 -19 9 -20 -12 -15 -13 4 -41 7 -61 7 l-38 0 0 55 c0
30 -4 55 -10 55 -5 0 -10 5 -10 10 0 6 30 10 70 10 40 0 70 -4 70 -10z m170 0
c0 -6 -28 -10 -65 -10 -37 0 -65 4 -65 10 0 6 28 10 65 10 37 0 65 -4 65 -10z
m575 -16 c44 -23 70 -63 60 -94 -5 -17 -15 -20 -60 -20 -38 0 -54 4 -59 15 -3
8 -15 15 -26 15 -11 0 -20 -7 -20 -15 0 -12 -13 -15 -55 -15 l-55 0 0 60 c0
33 -4 60 -10 60 -5 0 -10 5 -10 11 0 21 189 7 235 -17z m235 16 c0 -5 -3 -10
-7 -10 -5 0 -7 -24 -5 -52 l4 -53 -59 1 -58 0 -5 62 -5 62 68 0 c38 0 67 -4
67 -10z m160 -11 c27 -14 -18 -23 -57 -11 -19 6 -41 8 -49 5 -9 -3 -14 1 -14
11 0 14 8 16 53 10 28 -4 59 -10 67 -15z m-980 -66 l0 -58 -55 3 -55 4 0 54 0
54 55 0 55 0 0 -57z m-1997 -1 c32 -31 34 -37 26 -70 -4 -20 -17 -43 -29 -52
-15 -11 -18 -18 -10 -26 15 -15 -7 -129 -27 -150 -16 -16 -51 -18 -71 -5 -11
7 -10 10 3 15 9 3 25 6 36 6 10 0 19 5 19 11 0 7 -11 8 -30 4 -28 -6 -30 -5
-26 17 14 61 12 73 -12 76 -32 5 -59 -22 -67 -66 -13 -68 -37 -86 -89 -66 -24
9 -19 25 7 23 39 -4 58 1 52 11 -3 6 -19 10 -35 10 -28 0 -29 2 -24 33 3 17
14 61 24 97 31 109 31 108 0 134 -16 13 -26 27 -22 31 4 3 60 5 124 3 l117 -3
34 -33z m301 5 l37 -33 -12 -50 c-22 -93 -61 -204 -76 -219 -16 -17 -41 -19
-61 -6 -13 8 -11 27 14 114 5 14 -1 17 -35 17 -40 0 -41 -1 -52 -45 -6 -25
-15 -47 -19 -50 -4 -2 -23 -2 -43 2 -31 5 -37 10 -37 30 0 13 6 39 14 57 7 18
17 53 21 77 4 24 12 50 17 57 12 14 -6 42 -28 42 -8 0 -14 2 -14 4 0 2 -3 11
-6 20 -5 14 9 16 118 16 l124 0 38 -33z m285 19 c16 -19 3 -64 -20 -71 -10 -4
-19 -11 -19 -17 0 -6 6 -6 15 2 13 10 15 9 15 -8 0 -12 -4 -23 -9 -27 -6 -3
-30 -32 -55 -65 l-46 -60 66 0 66 0 -7 -27 c-3 -15 -12 -31 -18 -35 -17 -11
-225 -10 -231 1 -4 5 13 25 36 45 30 25 38 36 26 36 -10 0 -18 5 -18 10 0 13
88 122 106 133 30 17 11 27 -54 27 -61 0 -70 3 -94 29 -15 15 -24 31 -21 35 4
3 61 6 128 6 93 0 125 -3 134 -14z m306 -20 l37 -34 -17 -69 c-9 -37 -19 -77
-22 -88 -9 -32 -94 -108 -107 -95 -14 14 -106 13 -106 -1 0 -8 17 -10 52 -7
46 5 49 4 33 -8 -25 -19 -41 -18 -92 7 -53 26 -61 50 -40 127 9 31 21 76 27
99 15 61 75 103 146 103 45 0 56 -4 89 -34z m282 17 c3 -10 17 -30 31 -46 20
-21 23 -30 14 -39 -7 -7 -12 -19 -12 -28 0 -8 -10 -21 -21 -28 -16 -10 -18
-17 -10 -25 15 -15 14 -48 -5 -104 -21 -64 -36 -75 -75 -56 -16 8 -29 15 -29
16 0 1 7 24 15 51 8 26 12 52 9 57 -8 13 -74 11 -74 -2 0 -6 -7 -35 -15 -64
-16 -55 -39 -70 -86 -58 -29 8 -23 25 9 23 43 -3 54 -1 47 10 -3 6 -19 10 -36
10 -34 0 -37 15 -15 82 7 24 21 67 30 97 l16 54 -25 27 c-14 14 -25 29 -25 33
0 4 56 7 125 7 111 0 126 -2 132 -17z m1779 -141 c-12 -11 -18 7 -10 30 l8 23
4 -23 c2 -13 1 -26 -2 -30z m-1563 -21 c-16 -15 -30 -18 -60 -14 -39 5 -41 4
-56 -33 -9 -22 -16 -33 -16 -26 -1 7 5 28 13 47 13 31 19 34 63 38 26 2 54 4
62 5 10 1 8 -4 -6 -17z m1237 -6 c0 -8 -2 -15 -4 -15 -2 0 -6 7 -10 15 -3 8
-1 15 4 15 6 0 10 -7 10 -15z m-435 -15 c18 -8 17 -9 -7 -9 -16 -1 -28 4 -28
9 0 12 8 12 35 0z m629 -17 c-10 -40 -14 -41 -14 -5 0 18 5 32 10 32 6 0 8
-11 4 -27z m171 -47 c10 -29 10 -36 -2 -40 -22 -9 -121 -7 -126 2 -3 4 23 7
56 7 60 0 62 1 59 25 -2 14 -11 36 -19 50 -15 24 -15 24 2 8 10 -9 24 -33 30
-52z m-658 34 c8 -11 9 -21 3 -25 -8 -5 -30 24 -30 39 0 13 16 5 27 -14z m313
-15 c0 -8 4 -15 10 -15 5 0 7 -7 4 -15 -4 -8 -10 -13 -14 -10 -11 7 -19 55 -9
55 5 0 9 -7 9 -15z m-2280 -30 c-13 -14 -25 -23 -27 -21 -8 8 22 46 36 46 10
0 7 -8 -9 -25z m2445 -26 c10 -15 8 -15 -68 -11 -37 2 -65 8 -61 13 7 13 121
11 129 -2z m-1000 -13 c11 -2 -10 -4 -47 -5 -38 0 -68 2 -68 7 0 7 67 6 115
-2z m595 8 c-48 -6 -380 -9 -380 -3 0 3 91 6 203 6 111 1 191 -1 177 -3z m213
-1 c-18 -2 -48 -2 -65 0 -18 2 -4 4 32 4 36 0 50 -2 33 -4z m-646 -10 c-20 -2
-52 -2 -70 0 -17 2 0 4 38 4 39 0 53 -2 32 -4z m-422 -13 c-3 -5 -13 -10 -21
-10 -8 0 -12 5 -9 10 3 6 13 10 21 10 8 0 12 -4 9 -10z m-1485 -10 c-20 -13
-57 -13 -65 0 -4 6 11 10 37 10 31 0 39 -3 28 -10z m1404 -11 c-6 -11 -174
-12 -174 -1 0 4 40 7 90 8 49 1 87 -3 84 -7z m-1179 -9 c-3 -5 -11 -10 -16
-10 -6 0 -7 5 -4 10 3 6 11 10 16 10 6 0 7 -4 4 -10z m1523 -1 c-17 -7 -38 -7
-60 0 -30 8 -28 9 27 9 50 0 56 -1 33 -9z m620 4 c-16 -2 -40 -2 -55 0 -16 2
-3 4 27 4 30 0 43 -2 28 -4z m-1970 -10 c-10 -2 -28 -2 -40 0 -13 2 -5 4 17 4
22 1 32 -1 23 -4z m265 -10 c-13 -2 -35 -2 -50 0 -16 2 -5 4 22 4 28 0 40 -2
28 -4z"/>
<path d="M2218 563 c12 -2 30 -2 40 0 9 3 -1 5 -23 4 -22 0 -30 -2 -17 -4z"/>
<path d="M2883 563 c15 -2 37 -2 50 0 12 2 0 4 -28 4 -27 0 -38 -2 -22 -4z"/>
<path d="M3008 553 c7 -3 16 -2 19 1 4 3 -2 6 -13 5 -11 0 -14 -3 -6 -6z"/>
<path d="M342 458 c-7 -7 -12 -22 -12 -35 0 -19 5 -23 28 -23 34 0 52 16 52
47 0 19 -5 23 -28 23 -15 0 -33 -5 -40 -12z"/>
<path d="M642 461 c-21 -13 -11 -55 14 -59 26 -4 56 24 52 47 -4 18 -46 26
-66 12z"/>
<path d="M987 413 c-4 -3 -7 -11 -7 -17 0 -6 5 -5 12 2 6 6 9 14 7 17 -3 3 -9
2 -12 -2z"/>
<path d="M1232 458 c-6 -7 -15 -35 -20 -63 -6 -27 -15 -67 -20 -87 l-10 -38
33 0 c19 0 37 5 41 12 9 14 34 109 41 156 5 30 3 32 -25 32 -16 0 -34 -6 -40
-12z"/>
<path d="M1541 461 c-12 -12 -21 -30 -21 -42 0 -17 5 -20 31 -17 38 4 59 30
43 55 -16 25 -31 26 -53 4z"/>
<path d="M1565 220 c-3 -5 3 -10 14 -10 11 0 23 5 26 10 3 6 -3 10 -14 10 -11
0 -23 -4 -26 -10z"/>
<path d="M1072 2858 c-14 -14 -16 -28 -3 -28 9 0 24 30 18 36 -2 2 -9 -2 -15
-8z"/>
<path d="M1019 2793 c-13 -16 -12 -17 4 -4 9 7 17 15 17 17 0 8 -8 3 -21 -13z"/>
<path d="M2760 2781 c0 -5 5 -13 10 -16 6 -3 10 -2 10 4 0 5 -4 13 -10 16 -5
3 -10 2 -10 -4z"/>
<path d="M940 2695 c-7 -9 -11 -17 -9 -20 3 -2 10 5 17 15 14 24 10 26 -8 5z"/>
<path d="M1911 2667 c-47 -13 -63 -30 -36 -41 10 -3 28 3 42 14 14 11 34 20
44 20 10 0 21 5 24 10 8 13 -18 12 -74 -3z"/>
<path d="M2757 2637 c-10 -15 -12 -29 -6 -38 5 -8 9 -22 9 -32 0 -14 -4 -16
-19 -8 -20 11 -31 5 -31 -17 0 -10 7 -12 25 -8 36 9 128 -20 155 -49 25 -26
20 -46 -9 -38 -25 6 -37 -15 -18 -34 19 -19 32 -11 54 34 16 34 16 38 -1 67
-10 17 -25 44 -34 60 -22 39 -73 85 -93 86 -9 0 -24 -10 -32 -23z"/>
<path d="M1725 2599 c-27 -22 -75 -56 -105 -76 -30 -19 -67 -47 -82 -61 -32
-29 -22 -34 -181 84 -117 88 -151 98 -213 63 -38 -20 -104 -74 -104 -84 0 -2
15 -13 33 -24 18 -11 44 -29 56 -41 13 -11 27 -20 31 -20 5 0 20 -24 35 -52
67 -131 148 -174 304 -162 l89 7 74 -77 c41 -42 81 -76 89 -76 9 0 24 -9 35
-21 33 -36 70 -49 142 -49 53 0 79 6 120 26 54 27 137 101 186 167 22 31 33
37 50 32 53 -17 66 -17 66 -3 0 25 37 57 59 51 24 -6 98 62 125 115 16 32 36
35 36 6 0 -34 19 -10 26 31 4 32 13 49 28 57 45 23 56 38 44 64 -6 14 -22 27
-35 30 -30 8 -30 34 0 35 21 0 21 1 2 10 -14 7 -30 6 -50 -2 l-30 -12 25 -6
25 -7 -25 -7 c-14 -3 -26 -2 -28 3 -5 15 -53 -14 -97 -59 -21 -23 -48 -41 -58
-41 -23 0 -150 -127 -144 -144 2 -6 -8 -25 -23 -43 -15 -17 -29 -35 -31 -40
-6 -14 -125 -101 -171 -124 -52 -27 -151 -36 -204 -19 -52 16 -114 59 -114 79
0 9 -14 29 -30 45 -17 16 -30 33 -30 38 0 11 -65 69 -96 86 -36 19 -29 35 36
76 32 21 64 44 70 51 6 8 30 23 53 35 23 12 48 31 55 41 7 10 21 19 31 19 10
0 26 9 36 20 18 20 17 20 -21 19 -30 0 -50 -9 -89 -40z m735 -138 c0 -20 -19
-41 -36 -41 -22 0 -24 30 -3 51 22 22 39 18 39 -10z m-1089 0 c18 -15 21 -22
13 -31 -17 -17 -54 5 -54 30 0 25 11 25 41 1z m-1 -167 c19 -4 41 -11 48 -17
19 -15 14 -37 -8 -37 -61 0 -180 92 -180 138 0 25 3 24 53 -26 35 -34 64 -54
87 -58z"/>
<path d="M1940 2561 c-86 -25 -137 -52 -185 -101 -29 -29 -35 -40 -22 -40 9 0
26 9 37 20 11 11 27 20 35 20 9 0 32 11 53 24 20 12 48 27 62 31 14 4 32 14
41 22 9 7 20 13 25 12 20 -3 32 2 38 16 7 19 -3 18 -84 -4z"/>
<path d="M2768 2342 c-9 -4 -54 -42 -99 -86 -89 -84 -203 -166 -231 -166 -10
0 -18 -5 -18 -10 0 -6 -34 -27 -76 -47 -76 -35 -114 -39 -166 -18 -13 5 -28
-3 -51 -28 -54 -55 -111 -71 -252 -71 -126 1 -237 20 -329 55 -96 37 -226 104
-226 117 0 6 -10 12 -22 12 -24 0 -155 80 -198 121 -56 53 -126 107 -147 113
-16 5 -30 -1 -56 -24 -19 -16 -40 -30 -45 -30 -18 0 -33 -38 -26 -65 3 -14 12
-25 19 -25 25 0 53 -49 75 -132 48 -179 86 -262 125 -274 20 -6 64 -52 65 -67
0 -16 83 -128 101 -138 10 -5 19 -16 19 -24 0 -14 148 -154 153 -145 1 3 25
-11 52 -31 54 -40 192 -102 206 -94 5 3 19 0 31 -8 72 -44 358 -23 531 39 84
30 102 39 147 76 19 15 39 28 45 28 6 0 21 11 32 24 11 13 35 32 52 42 39 23
48 54 26 88 -23 35 -17 56 13 45 20 -8 23 -13 17 -40 -8 -35 10 -37 29 -3 6
10 13 21 16 24 9 9 50 69 50 73 0 3 15 29 33 58 20 34 38 53 48 51 8 -1 23 6
33 17 25 28 84 203 92 273 4 39 11 58 20 58 19 0 46 57 39 80 -5 16 -2 20 15
20 52 0 84 51 40 63 -11 3 -20 11 -20 17 0 7 7 10 15 6 22 -8 18 12 -4 24 -24
12 -48 4 -62 -22 -10 -18 -10 -18 -27 1 -19 23 -59 34 -84 23z m-343 -449 c-7
-38 -22 -56 -37 -47 -13 8 -9 38 8 62 24 34 37 27 29 -15z m-1085 0 c0 35 41
12 68 -40 6 -10 14 -51 17 -91 7 -67 6 -72 -11 -72 -14 0 -30 21 -56 73 -34
66 -41 85 -54 142 -5 17 -2 16 15 -5 17 -20 21 -22 21 -7z m920 -63 c0 -17
-50 -124 -67 -142 -21 -24 -28 -23 -41 6 -9 19 -8 25 4 30 8 3 14 15 14 26 0
26 26 77 42 83 22 9 48 7 48 -3z m-526 -61 l25 -12 -30 -58 c-16 -33 -32 -59
-36 -59 -3 0 -14 7 -24 16 -16 14 -18 66 -3 112 4 15 35 16 68 1z m249 -11
c16 -12 15 -17 -8 -66 -15 -32 -30 -52 -37 -50 -18 6 -32 69 -24 102 7 29 39
35 69 14z m397 -232 c16 -20 9 -60 -12 -64 -15 -3 -18 4 -18 37 0 43 9 51 30
27z m-810 -104 c14 -52 13 -62 -9 -62 -22 0 -31 19 -31 64 0 59 23 58 40 -2z
m579 29 c11 -11 28 -32 37 -46 17 -27 17 -28 -7 -46 -28 -22 -75 -21 -72 1 6
60 15 110 19 110 2 0 13 -9 23 -19z m-409 -101 c0 -15 -7 -33 -15 -40 -13 -10
-19 -10 -35 5 -26 23 -25 59 1 97 l22 30 13 -32 c8 -18 14 -45 14 -60z m214 4
c0 -61 -43 -78 -85 -35 -18 18 -11 36 30 83 l24 28 16 -22 c8 -12 15 -37 15
-54z"/>
<path d="M2485 2277 c-29 -17 -87 -37 -109 -37 -14 0 -17 -3 -9 -11 14 -14 82
6 119 37 31 25 31 30 -1 11z"/>
<path d="M2927 873 c-4 -3 -7 -19 -7 -34 0 -40 41 -66 76 -51 31 15 40 37 26
68 -9 19 -19 24 -50 24 -21 0 -42 -3 -45 -7z"/>
</g>
</svg>
